<svg width="80" height="80" viewBox="0 0 80 80" fill="none" xmlns="http://www.w3.org/2000/svg">
<rect width="80" height="80" fill="#626070"/>
<g clip-path="url(#clip0_259_4717)">
<path d="M44.0002 40.0001C43.9969 40.7888 43.7605 41.5589 43.3208 42.2136C42.881 42.8683 42.2575 43.3784 41.5287 43.6798C40.7999 43.9811 39.9982 44.0603 39.2245 43.9073C38.4508 43.7544 37.7396 43.3761 37.1802 42.8201C36.6242 42.2608 36.2459 41.5495 36.093 40.7758C35.94 40.0021 36.0192 39.2004 36.3206 38.4716C36.6219 37.7428 37.132 37.1193 37.7867 36.6795C38.4414 36.2398 39.2115 36.0034 40.0002 36.0001V20.0001C42.6289 19.9922 45.2332 20.5041 47.6633 21.5064C50.0933 22.5087 52.3013 23.9815 54.16 25.8403C56.0188 27.699 57.4917 29.907 58.4939 32.3371C59.4962 34.7671 60.0081 37.3714 60.0002 40.0001H44.0002ZM59.8002 42.8201C59.2765 46.498 57.7387 49.9573 55.3592 52.8102C52.9798 55.6632 49.8528 57.7971 46.3287 58.9726C42.8046 60.1481 39.0228 60.3189 35.4071 59.4658C31.7914 58.6127 28.4848 56.7693 25.8579 54.1425C23.231 51.5156 21.3877 48.2089 20.5345 44.5932C19.6814 40.9776 19.8522 37.1957 21.0277 33.6716C22.2033 30.1475 24.3371 27.0205 27.1901 24.6411C30.043 22.2617 33.5024 20.7239 37.1802 20.2001V24.2601C34.304 24.7775 31.6245 26.0727 29.4323 28.0053C27.2402 29.9378 25.6192 32.4338 24.7452 35.2224C23.8713 38.011 23.7778 40.9857 24.4748 43.8237C25.1719 46.6617 26.6329 49.2546 28.6993 51.321C30.7657 53.3875 33.3586 54.8485 36.1966 55.5455C39.0346 56.2426 42.0093 56.149 44.7979 55.2751C47.5865 54.4011 50.0825 52.7801 52.0151 50.588C53.9476 48.3958 55.2428 45.7163 55.7602 42.8401H59.8002V42.8201ZM51.6602 42.8201C51.156 44.8891 50.1103 46.7867 48.6303 48.3181C47.1504 49.8494 45.2896 50.9593 43.239 51.5339C41.1883 52.1085 39.0217 52.1269 36.9616 51.5875C34.9015 51.048 33.022 49.97 31.5161 48.4642C30.0103 46.9583 28.9323 45.0788 28.3928 43.0187C27.8534 40.9586 27.8719 38.792 28.4464 36.7413C29.021 34.6907 30.1309 32.8299 31.6622 31.35C33.1936 29.8701 35.0912 28.8243 37.1602 28.3201V32.5201C35.9083 32.9917 34.7951 33.7704 33.9228 34.7847C33.0505 35.799 32.4473 37.0163 32.1685 38.3247C31.8897 39.6331 31.9443 40.9906 32.3273 42.2724C32.7102 43.5542 33.4093 44.7191 34.3602 45.6601C35.3066 46.6005 36.4731 47.2893 37.7535 47.6638C39.034 48.0383 40.3878 48.0866 41.6918 47.8044C42.9957 47.5221 44.2083 46.9183 45.2193 46.0477C46.2303 45.1772 47.0075 44.0677 47.4802 42.8201H51.6802H51.6602Z" fill="white"/>
</g>
<defs>
<clipPath id="clip0_259_4717">
<rect width="40" height="40" fill="white" transform="translate(20 20)"/>
</clipPath>
</defs>
</svg>
