<svg width="80" height="80" viewBox="0 0 80 80" fill="none" xmlns="http://www.w3.org/2000/svg">
<rect width="80" height="80" fill="#93674F"/>
<path d="M28.3333 56.6667C26.1333 56.6667 25.25 52.7333 25.0667 51.1667C24.8693 49.6456 25.0526 48.0994 25.6 46.6667C25.8406 45.9849 26.2545 45.3775 26.8009 44.9041C27.3474 44.4307 28.0076 44.1076 28.7167 43.9667C30.6667 43.6333 32.05 44.8 33.8167 45.2C34.1485 45.3065 34.5023 45.3252 34.8436 45.2542C35.1848 45.1833 35.5018 45.0251 35.7637 44.7951C36.0256 44.5651 36.2234 44.2712 36.3378 43.942C36.4523 43.6128 36.4794 43.2595 36.4167 42.9167C35.6833 40.05 30.4667 40 28.3333 40C28.3333 36.9 31.7333 36.5 34.1667 36.7333C35.6102 36.8728 37.0316 37.1862 38.4 37.6667C39.2333 37.95 40.2 38.6667 41.1167 38.6C42.5 38.4833 42.7833 37.05 42.1833 36C40.7333 33.5333 36.6167 33.3333 34.1667 33.3333C34.1667 30 37.05 29.3667 39.8167 29.8667C41.2452 30.1479 42.6373 30.5896 43.9667 31.1833C44.8167 31.55 45.8333 32.25 46.7667 31.9333C49.1667 31.2 46.6667 28.6333 45.6 28.0167C44.8514 27.6036 44.0571 27.2791 43.2333 27.05C42.3333 26.7833 41.2333 26.8833 42.05 25.8333C43.327 24.7067 44.9114 23.9871 46.6 23.7667C49.75 23.0333 54.1 22.9 54.8667 26.8667C55.1221 28.9609 54.6196 31.0774 53.45 32.8333C50.3443 38.1439 46.5004 42.9867 42.0333 47.2167C39.6669 49.6424 37.1025 51.8668 34.3667 53.8667C32.7 55.0667 30.5 56.6667 28.3333 56.6667Z" fill="white"/>
</svg>
