<svg width="80" height="80" viewBox="0 0 80 80" fill="none" xmlns="http://www.w3.org/2000/svg">
<rect width="80" height="80" fill="#AF81BA"/>
<path d="M27.6933 28.3333L30.1933 33.3333H35.1933L32.6933 28.3333H36.0267L38.5267 33.3333H43.5267L41.0267 28.3333H44.36L46.86 33.3333H51.86L49.36 28.3333H52.3083C53.075 28.3333 53.7156 28.5906 54.23 29.105C54.7444 29.6194 55.0011 30.26 55 31.0267V48.975C55 49.7417 54.7433 50.3822 54.23 50.8967C53.7167 51.4111 53.0761 51.6678 52.3083 51.6667H27.6917C26.925 51.6667 26.285 51.41 25.7717 50.8967C25.2583 50.3833 25.0011 49.7422 25 48.9733V31.0267C25 30.2589 25.2572 29.6183 25.7717 29.105C26.2861 28.5917 26.9261 28.3344 27.6917 28.3333" fill="white"/>
</svg>
