<svg width="80" height="80" viewBox="0 0 80 80" fill="none" xmlns="http://www.w3.org/2000/svg">
<rect width="80" height="80" fill="#277C78"/>
<path d="M56.1834 38.3333L49.5167 26.6667C49.2273 26.1653 48.8123 25.7479 48.3125 25.4557C47.8128 25.1635 47.2456 25.0064 46.6667 25H33.3334C32.7573 25.0093 32.1935 25.1677 31.697 25.4598C31.2004 25.7519 30.788 26.1677 30.5 26.6667L23.8334 38.3333C23.5408 38.8401 23.3868 39.4149 23.3868 40C23.3868 40.5851 23.5408 41.1599 23.8334 41.6667L30.5 53.3333C30.788 53.8323 31.2004 54.2481 31.697 54.5402C32.1935 54.8323 32.7573 54.9907 33.3334 55H46.6667C47.2541 55.0023 47.8316 54.8494 48.3409 54.5567C48.8501 54.2641 49.273 53.842 49.5667 53.3333L56.2334 41.6667C56.5184 41.1556 56.6638 40.5784 56.655 39.9933C56.6462 39.4082 56.4836 38.8357 56.1834 38.3333ZM40 43.3333C39.3408 43.3333 38.6963 43.1378 38.1481 42.7716C37.6 42.4053 37.1727 41.8847 36.9204 41.2756C36.6681 40.6665 36.6021 39.9963 36.7307 39.3497C36.8594 38.7031 37.1768 38.1092 37.643 37.643C38.1092 37.1768 38.7031 36.8593 39.3497 36.7307C39.9963 36.6021 40.6666 36.6681 41.2756 36.9204C41.8847 37.1727 42.4053 37.5999 42.7716 38.1481C43.1379 38.6963 43.3334 39.3407 43.3334 40C43.3334 40.8841 42.9822 41.7319 42.357 42.357C41.7319 42.9821 40.8841 43.3333 40 43.3333Z" fill="white"/>
</svg>
