<svg width="80" height="80" viewBox="0 0 80 80" fill="none" xmlns="http://www.w3.org/2000/svg">
<rect width="80" height="80" fill="#3F82B3"/>
<g clip-path="url(#clip0_259_4733)">
<path fill-rule="evenodd" clip-rule="evenodd" d="M45 23.3333C46.5588 23.3332 48.0864 23.7702 49.4093 24.5949C50.7321 25.4195 51.7971 26.5987 52.4833 27.9983L52.64 28.3333H55C55.2823 28.3333 55.5601 28.405 55.8071 28.5417C56.0541 28.6784 56.2624 28.8757 56.4123 29.1149C56.5623 29.3541 56.649 29.6275 56.6643 29.9095C56.6796 30.1914 56.6231 30.4726 56.5 30.7267L56.3867 30.925L53.8 34.8033C53.6017 35.1015 53.5047 35.4557 53.5233 35.8133L53.5467 36.0267L53.7817 37.3167C55.43 46.38 48.6017 54.735 39.46 54.9933L39.0233 55H25C24.7177 55 24.44 54.9283 24.1929 54.7916C23.9459 54.6549 23.7376 54.4577 23.5877 54.2184C23.4378 53.9792 23.3511 53.7058 23.3357 53.4239C23.3204 53.142 23.3769 52.8608 23.5 52.6067L23.6133 52.4083L36.0217 33.795C36.4423 33.1649 36.6667 32.4243 36.6667 31.6667C36.6667 29.4565 37.5446 27.3369 39.1075 25.7741C40.6703 24.2113 42.7899 23.3333 45 23.3333ZM39.1667 38.3333C38.715 38.3333 38.0617 38.45 37.44 38.6817C36.815 38.915 36.47 39.1733 36.35 39.3117L30.71 47.7733C32.3733 47.295 34.1517 46.7683 35.815 46.1167C37.5933 45.4217 39.1117 44.63 40.1633 43.7067C41.1833 42.8117 41.6667 41.8867 41.6667 40.8333C41.6667 40.1703 41.4033 39.5344 40.9344 39.0656C40.4656 38.5967 39.8297 38.3333 39.1667 38.3333ZM45 30C44.558 30 44.1341 30.1756 43.8215 30.4882C43.5089 30.8007 43.3333 31.2246 43.3333 31.6667C43.3333 32.1087 43.5089 32.5326 43.8215 32.8452C44.1341 33.1577 44.558 33.3333 45 33.3333C45.442 33.3333 45.866 33.1577 46.1785 32.8452C46.4911 32.5326 46.6667 32.1087 46.6667 31.6667C46.6667 31.2246 46.4911 30.8007 46.1785 30.4882C45.866 30.1756 45.442 30 45 30Z" fill="white"/>
<path d="M42.1662 26.8756L39.9884 25.4244C39.6271 24.2854 38.9125 23.291 37.9482 22.5854C36.9839 21.8798 35.8199 21.4996 34.625 21.5H34.5978C31.5115 21.515 29 24.0753 29 27.2084V29.0591L21.0903 38.5513L21.0809 38.5625C20.9044 38.783 20.7937 39.0488 20.7616 39.3294C20.7294 39.61 20.7772 39.894 20.8993 40.1487C21.0215 40.4033 21.213 40.6183 21.452 40.769C21.6909 40.9196 21.9675 40.9996 22.25 41H30.5C33.085 40.9973 35.5633 39.9692 37.3912 38.1413C39.2191 36.3134 40.2472 33.835 40.25 31.25V29.4012L42.1662 28.1244C42.2691 28.0559 42.3535 27.9631 42.4118 27.8542C42.4702 27.7452 42.5007 27.6236 42.5007 27.5C42.5007 27.3764 42.4702 27.2548 42.4118 27.1458C42.3535 27.0369 42.2691 26.9441 42.1662 26.8756ZM31.8265 32.48L26.2015 39.23C26.1392 39.3079 26.062 39.3725 25.9744 39.4201C25.8868 39.4678 25.7905 39.4975 25.6913 39.5075C25.5921 39.5175 25.4918 39.5076 25.3965 39.4784C25.3011 39.4493 25.2125 39.4013 25.1359 39.3375C25.0593 39.2737 24.9962 39.1952 24.9503 39.1067C24.9043 39.0181 24.8765 38.9213 24.8685 38.8219C24.8604 38.7225 24.8723 38.6225 24.9033 38.5277C24.9344 38.433 24.984 38.3454 25.0493 38.27L30.6743 31.52C30.7367 31.4421 30.8139 31.3775 30.9015 31.3299C30.9891 31.2822 31.0853 31.2525 31.1846 31.2425C31.2838 31.2325 31.384 31.2424 31.4794 31.2716C31.5747 31.3007 31.6633 31.3487 31.7399 31.4125C31.8165 31.4763 31.8797 31.5548 31.9256 31.6433C31.9715 31.7319 31.9993 31.8287 32.0074 31.9281C32.0154 32.0275 32.0036 32.1275 31.9725 32.2223C31.9415 32.317 31.8918 32.4046 31.8265 32.48ZM35.375 27.5C35.1525 27.5 34.9349 27.434 34.7499 27.3104C34.5649 27.1868 34.4207 27.0111 34.3356 26.8055C34.2504 26.6 34.2282 26.3738 34.2716 26.1555C34.315 25.9373 34.4221 25.7368 34.5795 25.5795C34.7368 25.4222 34.9373 25.315 35.1555 25.2716C35.3737 25.2282 35.5999 25.2505 35.8055 25.3356C36.011 25.4208 36.1867 25.565 36.3104 25.75C36.434 25.935 36.5 26.1525 36.5 26.375C36.5 26.6734 36.3814 26.9595 36.1705 27.1705C35.9595 27.3815 35.6733 27.5 35.375 27.5Z" fill="white"/>
</g>
<defs>
<clipPath id="clip0_259_4733">
<rect width="40" height="40" fill="white" transform="translate(20 20)"/>
</clipPath>
</defs>
</svg>
