<svg width="80" height="80" viewBox="0 0 80 80" fill="none" xmlns="http://www.w3.org/2000/svg">
<rect width="80" height="80" fill="#BE6C49"/>
<path d="M48.3334 31.6667C45.6187 31.6657 42.9684 32.4934 40.7368 34.0392C38.5052 35.5849 36.7986 37.775 35.845 40.3167L38.9684 41.4883C39.7934 39.2973 41.3607 37.4651 43.3974 36.3107C45.4342 35.1563 47.8113 34.7528 50.1149 35.1705C52.4185 35.5883 54.5027 36.8007 56.0044 38.5968C57.5061 40.3929 58.3302 42.6588 58.3334 45C58.3334 47.6522 57.2798 50.1957 55.4044 52.0711C53.5291 53.9464 50.9855 55 48.3334 55H31.6667C29.3054 55.0015 27.0198 54.1673 25.2145 52.6453C23.4092 51.1232 22.2008 49.0114 21.8032 46.6839C21.4056 44.3563 21.8445 41.9631 23.0421 39.9281C24.2397 37.893 26.1188 36.3475 28.3467 35.565C28.2039 32.686 29.132 29.8561 30.9521 27.6209C32.7721 25.3856 35.3552 23.9032 38.2033 23.4596C41.0515 23.0159 43.9631 23.6423 46.3768 25.2181C48.7904 26.7938 50.5353 29.2073 51.275 31.9933C50.3096 31.7756 49.323 31.666 48.3334 31.6667Z" fill="white"/>
</svg>
