<svg width="80" height="80" viewBox="0 0 80 80" fill="none" xmlns="http://www.w3.org/2000/svg">
<rect width="80" height="80" fill="#934F6F"/>
<path d="M36.25 56.6667C33.4444 56.6667 30.9794 55.7294 28.855 53.855C26.7306 51.9806 25.4456 49.6539 25 46.875C24.9444 46.375 25.0833 45.9372 25.4167 45.5617C25.75 45.1861 26.1667 44.9989 26.6667 45H44.2083L46.0417 27.75C46.1806 26.5 46.7156 25.4511 47.6467 24.6033C48.5778 23.7556 49.6956 23.3322 51 23.3333C52.3889 23.3333 53.5694 23.8194 54.5417 24.7917C55.5139 25.7639 56 26.9444 56 28.3333V28.75C56 29.2222 55.84 29.6183 55.52 29.9383C55.2 30.2583 54.8044 30.4178 54.3333 30.4167C53.8622 30.4156 53.4667 30.2556 53.1467 29.9367C52.8267 29.6178 52.6667 29.2222 52.6667 28.75V28.3333C52.6667 27.8611 52.5067 27.4656 52.1867 27.1467C51.8667 26.8278 51.4711 26.6678 51 26.6667C50.5556 26.6667 50.1806 26.8128 49.875 27.105C49.5694 27.3972 49.3889 27.7511 49.3333 28.1667L47.4167 46.2917C47.1111 49.2361 45.9028 51.7017 43.7917 53.6883C41.6806 55.675 39.1667 56.6678 36.25 56.6667ZM30.2917 42.5C29.8194 42.5 29.4861 42.3678 29.2917 42.1033C29.0972 41.8389 29.0278 41.485 29.0833 41.0417C29.1111 40.7917 29.1322 40.59 29.1467 40.4367C29.1611 40.2833 29.1678 40.1378 29.1667 40C29.1667 39.1667 28.8889 38.1111 28.3333 36.8333C27.7778 35.5556 27.5 34.5972 27.5 33.9583C27.5 33.7083 27.5139 33.4517 27.5417 33.1883C27.5694 32.925 27.6528 32.6678 27.7917 32.4167C27.9028 32.1944 28.0556 32.0139 28.25 31.875C28.4444 31.7361 28.6528 31.6667 28.875 31.6667C29.3194 31.6667 29.66 31.7983 29.8967 32.0617C30.1333 32.325 30.1956 32.6794 30.0833 33.125C30.0278 33.375 30 33.6528 30 33.9583C30 34.5972 30.2778 35.5556 30.8333 36.8333C31.3889 38.1111 31.6667 39.1667 31.6667 40C31.6667 40.4167 31.6389 40.7639 31.5833 41.0417C31.5278 41.3194 31.4583 41.5556 31.375 41.75C31.2639 41.9722 31.1111 42.1528 30.9167 42.2917C30.7222 42.4306 30.5139 42.5 30.2917 42.5ZM41.125 42.5C40.6528 42.5 40.3194 42.3678 40.125 42.1033C39.9306 41.8389 39.8611 41.485 39.9167 41.0417C39.9444 40.7917 39.9656 40.59 39.98 40.4367C39.9944 40.2833 40.0011 40.1378 40 40C40 39.1667 39.7222 38.1111 39.1667 36.8333C38.6111 35.5556 38.3333 34.5972 38.3333 33.9583C38.3333 33.7083 38.3472 33.4517 38.375 33.1883C38.4028 32.925 38.4861 32.6678 38.625 32.4167C38.7361 32.1944 38.8889 32.0139 39.0833 31.875C39.2778 31.7361 39.4861 31.6667 39.7083 31.6667C40.1528 31.6667 40.4933 31.7983 40.73 32.0617C40.9667 32.325 41.0289 32.6794 40.9167 33.125C40.8611 33.375 40.8333 33.6528 40.8333 33.9583C40.8333 34.5972 41.1111 35.5556 41.6667 36.8333C42.2222 38.1111 42.5 39.1667 42.5 40C42.5 40.4167 42.4722 40.7639 42.4167 41.0417C42.3611 41.3194 42.2917 41.5556 42.2083 41.75C42.0972 41.9722 41.9444 42.1528 41.75 42.2917C41.5556 42.4306 41.3472 42.5 41.125 42.5ZM35.7083 42.5C35.2361 42.5 34.9028 42.3678 34.7083 42.1033C34.5139 41.8389 34.4444 41.485 34.5 41.0417C34.5278 40.7917 34.5489 40.59 34.5633 40.4367C34.5778 40.2833 34.5844 40.1378 34.5833 40C34.5833 39.1667 34.3056 38.1111 33.75 36.8333C33.1944 35.5556 32.9167 34.5972 32.9167 33.9583C32.9167 33.7083 32.9306 33.4517 32.9583 33.1883C32.9861 32.925 33.0694 32.6678 33.2083 32.4167C33.3194 32.1944 33.4722 32.0139 33.6667 31.875C33.8611 31.7361 34.0694 31.6667 34.2917 31.6667C34.7361 31.6667 35.0767 31.7983 35.3133 32.0617C35.55 32.325 35.6122 32.6794 35.5 33.125C35.4444 33.375 35.4167 33.6528 35.4167 33.9583C35.4167 34.5972 35.6944 35.5556 36.25 36.8333C36.8056 38.1111 37.0833 39.1667 37.0833 40C37.0833 40.4167 37.0556 40.7639 37 41.0417C36.9444 41.3194 36.875 41.5556 36.7917 41.75C36.6806 41.9722 36.5278 42.1528 36.3333 42.2917C36.1389 42.4306 35.9306 42.5 35.7083 42.5Z" fill="white"/>
</svg>
