<svg width="80" height="80" viewBox="0 0 80 80" fill="none" xmlns="http://www.w3.org/2000/svg">
<rect width="80" height="80" fill="#F2CDAC"/>
<path d="M25 55C24.7778 55 24.5628 54.9511 24.355 54.8533C24.1472 54.7556 23.9734 54.6378 23.8334 54.5C23.5 54.1944 23.3334 53.8128 23.3334 53.355C23.3334 52.8972 23.4861 52.5011 23.7917 52.1667C24.3195 51.6111 24.9517 51.2778 25.6884 51.1667C26.425 51.0556 27.1678 51.0694 27.9167 51.2083C28.1389 51.2639 28.3472 51.3194 28.5417 51.375C28.7361 51.4306 28.9028 51.3889 29.0417 51.25C29.2084 51.0833 29.2711 50.875 29.23 50.625C29.1889 50.375 29.14 50.1389 29.0834 49.9167C28.9722 49.1667 28.9584 48.4233 29.0417 47.6867C29.125 46.95 29.4306 46.3044 29.9584 45.75C30.4861 45.1956 31.1178 44.8622 31.8534 44.75C32.5889 44.6378 33.3322 44.6517 34.0834 44.7917C34.3056 44.8472 34.5211 44.9028 34.73 44.9583C34.9389 45.0139 35.1122 44.9722 35.25 44.8333C35.4167 44.6667 35.4722 44.4583 35.4167 44.2083C35.3611 43.9583 35.3056 43.7222 35.25 43.5C35.1389 42.75 35.125 42.0072 35.2084 41.2717C35.2917 40.5361 35.5972 39.89 36.125 39.3333C36.6528 38.7767 37.2845 38.4433 38.02 38.3333C38.7556 38.2233 39.4989 38.2372 40.25 38.375C40.4722 38.4306 40.6872 38.4861 40.895 38.5417C41.1028 38.5972 41.2767 38.5556 41.4167 38.4167C41.5834 38.25 41.6389 38.0417 41.5834 37.7917C41.5278 37.5417 41.4722 37.3056 41.4167 37.0833C41.3056 36.3333 41.2984 35.5906 41.395 34.855C41.4917 34.1194 41.8045 33.4733 42.3334 32.9167C42.8622 32.36 43.4945 32.0267 44.23 31.9167C44.9656 31.8067 45.7084 31.8206 46.4584 31.9583C46.6806 32.0139 46.8961 32.0694 47.105 32.125C47.3139 32.1806 47.4872 32.1389 47.625 32C47.7917 31.8333 47.8472 31.625 47.7917 31.375C47.7361 31.125 47.6806 30.8889 47.625 30.6667C47.5139 29.9167 47.5072 29.1733 47.605 28.4367C47.7028 27.7 48.015 27.0544 48.5417 26.5C49.0684 25.9456 49.7006 25.6122 50.4384 25.5C51.1761 25.3878 51.9189 25.4017 52.6667 25.5417C52.8889 25.5972 53.1039 25.6461 53.3117 25.6883C53.5195 25.7306 53.6934 25.6817 53.8334 25.5417C54.1389 25.2083 54.5211 25.0417 54.98 25.0417C55.4389 25.0417 55.8345 25.1944 56.1667 25.5C56.4989 25.8056 56.6656 26.1878 56.6667 26.6467C56.6678 27.1056 56.515 27.5011 56.2084 27.8333C55.6806 28.3889 55.0489 28.7294 54.3134 28.855C53.5778 28.9806 52.8345 28.9733 52.0834 28.8333C51.8611 28.7778 51.6461 28.7222 51.4384 28.6667C51.2306 28.6111 51.0567 28.6528 50.9167 28.7917C50.75 28.9583 50.6945 29.1667 50.75 29.4167C50.8056 29.6667 50.8611 29.9028 50.9167 30.125C51.0278 30.875 51.035 31.6183 50.9384 32.355C50.8417 33.0917 50.5289 33.7372 50 34.2917C49.4711 34.8461 48.8395 35.1794 48.105 35.2917C47.3706 35.4039 46.6272 35.39 45.875 35.25C45.6528 35.1944 45.4445 35.1389 45.25 35.0833C45.0556 35.0278 44.8889 35.0694 44.75 35.2083C44.5834 35.375 44.5211 35.5833 44.5634 35.8333C44.6056 36.0833 44.6539 36.3194 44.7084 36.5417C44.8195 37.2917 44.8334 38.035 44.75 38.7717C44.6667 39.5083 44.3611 40.1539 43.8334 40.7083C43.3056 41.2361 42.6739 41.5628 41.9384 41.6883C41.2028 41.8139 40.4595 41.8067 39.7084 41.6667C39.4861 41.6111 39.2778 41.5622 39.0834 41.52C38.8889 41.4778 38.7222 41.5267 38.5834 41.6667C38.4167 41.8333 38.3545 42.035 38.3967 42.2717C38.4389 42.5083 38.4872 42.7372 38.5417 42.9583C38.6528 43.7083 38.6667 44.4517 38.5834 45.1883C38.5 45.925 38.1945 46.5706 37.6667 47.125C37.1389 47.6794 36.5 48.0128 35.75 48.125C35 48.2372 34.25 48.2233 33.5 48.0833C33.2778 48.0278 33.0695 47.9794 32.875 47.9383C32.6806 47.8972 32.5139 47.9456 32.375 48.0833C32.2084 48.25 32.1528 48.4517 32.2084 48.6883C32.2639 48.925 32.3195 49.1539 32.375 49.375C32.4861 50.125 32.4934 50.8683 32.3967 51.605C32.3 52.3417 31.9872 52.9872 31.4584 53.5417C30.9295 54.0961 30.2978 54.4294 29.5634 54.5417C28.8289 54.6539 28.0856 54.64 27.3334 54.5C27.1111 54.4444 26.9028 54.3961 26.7084 54.355C26.5139 54.3139 26.3472 54.3622 26.2084 54.5C26.0417 54.6667 25.8539 54.7917 25.645 54.875C25.4361 54.9583 25.2211 55 25 55ZM30 38.3333C27.6945 38.3333 25.7295 37.5211 24.105 35.8967C22.4806 34.2722 21.6678 32.3067 21.6667 30C21.6667 27.6667 22.4795 25.6944 24.105 24.0833C25.7306 22.4722 27.6956 21.6667 30 21.6667C32.3334 21.6667 34.3056 22.4722 35.9167 24.0833C37.5278 25.6944 38.3334 27.6667 38.3334 30C38.3334 32.3056 37.5278 34.2711 35.9167 35.8967C34.3056 37.5222 32.3334 38.3344 30 38.3333ZM46.6667 58.3333C45.75 58.3333 44.9656 58.0072 44.3134 57.355C43.6611 56.7028 43.3345 55.9178 43.3334 55V46.6667C43.3334 45.75 43.66 44.9656 44.3134 44.3133C44.9667 43.6611 45.7511 43.3344 46.6667 43.3333H55C55.9167 43.3333 56.7017 43.66 57.355 44.3133C58.0084 44.9667 58.3345 45.7511 58.3334 46.6667V55C58.3334 55.9167 58.0072 56.7017 57.355 57.355C56.7028 58.0083 55.9178 58.3344 55 58.3333H46.6667Z" fill="white"/>
</svg>
