<svg width="80" height="80" viewBox="0 0 80 80" fill="none" xmlns="http://www.w3.org/2000/svg">
<rect width="80" height="80" fill="#826CB0"/>
<path d="M36.1183 45.7333L56.5433 25.64C56.7366 26.32 56.7033 27.0517 56.4416 27.7233L46.025 54.5233C45.3666 56.2167 43.4716 57.0867 41.7916 56.465C41.3823 56.3139 41.0086 56.0799 40.694 55.7776C40.3794 55.4754 40.1306 55.1113 39.9633 54.7083L36.6616 46.7583C36.5116 46.3983 36.3283 46.0533 36.1183 45.73V45.7333ZM33.7683 43.5867C33.5961 43.4964 33.4198 43.4141 33.24 43.34L25.29 40.0383C23.6416 39.35 22.8866 37.4417 23.6083 35.775C23.7855 35.3667 24.0419 34.9976 24.3626 34.6889C24.6832 34.3803 25.0619 34.1382 25.4766 33.9767L52.2766 23.56C53.0433 23.2617 53.8433 23.2683 54.5516 23.5183L33.7683 43.5867Z" fill="white"/>
</svg>
